<svg xmlns="http://www.w3.org/2000/svg" xmlns:xlink="http://www.w3.org/1999/xlink" version="1.1" width="256" height="256" viewBox="0 0 256 256" xml:space="preserve">

<defs>
</defs>
<g style="stroke: none; stroke-width: 0; stroke-dasharray: none; stroke-linecap: butt; stroke-linejoin: miter; stroke-miterlimit: 10; fill: none; fill-rule: nonzero; opacity: 1;" transform="translate(1.4065934065934016 1.4065934065934016) scale(2.81 2.81)" >
	<path d="M 41.32 72.726 L 20.189 87.608 c -2.158 1.52 -5.01 -0.576 -4.205 -3.089 l 7.853 -24.508 c 0.838 -2.614 -0.088 -5.471 -2.298 -7.097 L 1.126 37.892 c -2.14 -1.575 -1.026 -4.968 1.631 -4.968 h 25.235 c 2.745 0 5.183 -1.753 6.058 -4.355 l 8.342 -24.817 c 0.84 -2.5 4.376 -2.5 5.216 0 L 55.95 28.57 c 0.875 2.602 3.313 4.355 6.058 4.355 h 25.235 c 2.657 0 3.771 3.393 1.631 4.968 L 68.461 52.914 c -2.211 1.627 -3.136 4.484 -2.298 7.097 l 7.853 24.508 c 0.805 2.513 -2.047 4.609 -4.205 3.089 L 48.68 72.726 C 46.473 71.172 43.527 71.172 41.32 72.726 z" style="stroke: none; stroke-width: 1; stroke-dasharray: none; stroke-linecap: butt; stroke-linejoin: miter; stroke-miterlimit: 10; fill: rgb(242,218,0); fill-rule: nonzero; opacity: 1;" transform=" matrix(1 0 0 1 0 0) " stroke-linecap="round" />
</g>
</svg>